<svg xmlns="http://www.w3.org/2000/svg" xmlns:xlink="http://www.w3.org/1999/xlink" width="500" zoomAndPan="magnify" viewBox="0 0 375 374.999991" height="500" preserveAspectRatio="xMidYMid meet" version="1.0"><rect x="-37.5" width="450" fill="#ffffff" y="-37.499999" height="449.999989" fill-opacity="1"/><rect x="-37.5" width="450" fill="#171810" y="-37.499999" height="449.999989" fill-opacity="1"/><path fill="#03fa6e" d="M 74.082031 160.71875 C 85.296875 148.902344 94.835938 135.757812 105.808594 123.835938 C 109.90625 119.375 103.824219 113.589844 99.285156 117.289062 C 86.625 127.585938 72.855469 136.398438 60.277344 146.925781 C 47.539062 157.605469 34.976562 170.496094 20.742188 179.121094 C 11.863281 184.523438 11.816406 197.496094 20.742188 202.867188 C 46.171875 218.160156 69.578125 236.011719 90.6875 256.871094 C 105.167969 271.183594 127.917969 248.320312 112.992188 234.578125 C 93.160156 216.285156 71.730469 200.21875 48.507812 186.792969 C 56.644531 177.71875 65.996094 169.269531 74.082031 160.71875 Z M 74.082031 160.71875 " fill-opacity="1" fill-rule="nonzero"/><path fill="#03fa6e" d="M 286.027344 256.867188 C 307.140625 236.011719 330.550781 218.160156 355.980469 202.863281 C 364.890625 197.488281 364.847656 184.519531 355.980469 179.117188 C 341.730469 170.492188 329.144531 157.585938 316.429688 146.921875 C 303.875 136.398438 290.085938 127.589844 277.433594 117.292969 C 272.90625 113.589844 266.804688 119.363281 270.917969 123.828125 C 281.875 135.746094 291.421875 148.890625 302.628906 160.710938 C 310.726562 169.277344 320.085938 177.707031 328.214844 186.773438 C 304.976562 200.210938 283.53125 216.28125 263.726562 234.5625 C 248.808594 248.320312 271.535156 271.183594 286.027344 256.867188 Z M 286.027344 256.867188 " fill-opacity="1" fill-rule="nonzero"/><path fill="#03fa6e" d="M 130.394531 330.707031 C 130.5625 330.066406 161.152344 260.929688 172.089844 236.324219 C 196.765625 180.804688 221.394531 125.257812 246.042969 69.726562 C 251.753906 56.878906 257.371094 44.34375 261.496094 30.894531 C 263.3125 25 255.074219 22.007812 251.898438 26.835938 C 231.324219 58.109375 216.691406 93.964844 200.070312 127.4375 C 173.09375 181.769531 146.234375 236.164062 119.550781 290.636719 C 115.171875 299.605469 102.40625 323.929688 101.507812 327.492188 C 99.933594 333.738281 96.242188 341.535156 106.859375 346.371094 C 106.859375 346.371094 106.859375 346.378906 106.871094 346.378906 C 115.804688 351.144531 127.105469 343.335938 130.394531 330.707031 Z M 130.394531 330.707031 " fill-opacity="1" fill-rule="nonzero"/></svg>