<svg xmlns="http://www.w3.org/2000/svg" xmlns:xlink="http://www.w3.org/1999/xlink" width="250" zoomAndPan="magnify" viewBox="0 0 187.5 112.499997" height="150" preserveAspectRatio="xMidYMid meet" version="1.0"><defs><g/><clipPath id="3dbf4b35a4"><path d="M 123 28 L 138 28 L 138 79 L 123 79 Z M 123 28 " clip-rule="nonzero"/></clipPath><clipPath id="66d1c9a814"><path d="M 105.269531 46.992188 L 136.980469 28.5 L 155.472656 60.210938 L 123.761719 78.703125 Z M 105.269531 46.992188 " clip-rule="nonzero"/></clipPath><clipPath id="5ed8748dcb"><path d="M 105.269531 46.992188 L 136.980469 28.5 L 155.472656 60.210938 L 123.761719 78.703125 Z M 105.269531 46.992188 " clip-rule="nonzero"/></clipPath><clipPath id="85581ec26b"><path d="M 17.230469 32.933594 L 48.640625 32.933594 L 48.640625 74.128906 L 17.230469 74.128906 Z M 17.230469 32.933594 " clip-rule="nonzero"/></clipPath><clipPath id="8b58ff7ae9"><path d="M 138.359375 33.035156 L 169.769531 33.035156 L 169.769531 74.230469 L 138.359375 74.230469 Z M 138.359375 33.035156 " clip-rule="nonzero"/></clipPath></defs><g fill="#ffffff" fill-opacity="1"><g transform="translate(41.779498, 60.927481)"><g><path d="M 13.015625 -4.625 C 12.929688 -4.625 12.851562 -4.539062 12.78125 -4.375 C 12.507812 -3.75 12.210938 -3.164062 11.890625 -2.625 C 11.566406 -2.09375 11.203125 -1.628906 10.796875 -1.234375 C 10.390625 -0.835938 9.929688 -0.53125 9.421875 -0.3125 C 8.921875 -0.09375 8.367188 0.015625 7.765625 0.015625 C 6.378906 0.015625 5.351562 -0.519531 4.6875 -1.59375 C 4.019531 -2.675781 3.6875 -4.253906 3.6875 -6.328125 L 3.6875 -8.890625 C 3.6875 -10.890625 4.023438 -12.429688 4.703125 -13.515625 C 5.390625 -14.609375 6.445312 -15.15625 7.875 -15.15625 C 8.46875 -15.15625 9.007812 -15.054688 9.5 -14.859375 C 9.988281 -14.671875 10.425781 -14.410156 10.8125 -14.078125 C 11.207031 -13.742188 11.550781 -13.34375 11.84375 -12.875 C 12.132812 -12.40625 12.367188 -11.894531 12.546875 -11.34375 C 12.597656 -11.195312 12.65625 -11.125 12.71875 -11.125 C 12.789062 -11.125 12.828125 -11.210938 12.828125 -11.390625 L 12.828125 -15.109375 C 12.828125 -15.242188 12.8125 -15.332031 12.78125 -15.375 C 12.75 -15.425781 12.703125 -15.453125 12.640625 -15.453125 C 12.566406 -15.453125 12.46875 -15.390625 12.34375 -15.265625 L 11.453125 -14.359375 C 10.972656 -14.742188 10.425781 -15.039062 9.8125 -15.25 C 9.207031 -15.457031 8.5625 -15.5625 7.875 -15.5625 C 6.875 -15.5625 5.941406 -15.332031 5.078125 -14.875 C 4.222656 -14.414062 3.476562 -13.8125 2.84375 -13.0625 C 2.21875 -12.320312 1.726562 -11.476562 1.375 -10.53125 C 1.03125 -9.582031 0.859375 -8.625 0.859375 -7.65625 C 0.859375 -6.53125 1.0625 -5.476562 1.46875 -4.5 C 1.875 -3.519531 2.398438 -2.664062 3.046875 -1.9375 C 3.703125 -1.207031 4.441406 -0.628906 5.265625 -0.203125 C 6.085938 0.222656 6.921875 0.4375 7.765625 0.4375 C 8.484375 0.4375 9.164062 0.296875 9.8125 0.015625 C 10.46875 -0.265625 11.054688 -0.695312 11.578125 -1.28125 L 12.78125 0.046875 C 12.851562 0.117188 12.921875 0.15625 12.984375 0.15625 C 13.078125 0.15625 13.125 0.101562 13.125 0 L 13.125 -4.390625 C 13.125 -4.546875 13.085938 -4.625 13.015625 -4.625 Z M 13.015625 -4.625 "/></g></g></g><g fill="#ffffff" fill-opacity="1"><g transform="translate(54.872864, 60.927481)"><g><path d="M 5.171875 0.3125 C 5.859375 0.3125 6.476562 0.160156 7.03125 -0.140625 C 7.582031 -0.453125 8.050781 -0.84375 8.4375 -1.3125 C 8.820312 -1.789062 9.117188 -2.3125 9.328125 -2.875 C 9.546875 -3.4375 9.65625 -3.96875 9.65625 -4.46875 C 9.65625 -4.96875 9.546875 -5.5 9.328125 -6.0625 C 9.117188 -6.625 8.820312 -7.140625 8.4375 -7.609375 C 8.050781 -8.078125 7.582031 -8.46875 7.03125 -8.78125 C 6.476562 -9.09375 5.859375 -9.25 5.171875 -9.25 C 4.484375 -9.25 3.863281 -9.09375 3.3125 -8.78125 C 2.757812 -8.46875 2.285156 -8.078125 1.890625 -7.609375 C 1.492188 -7.140625 1.1875 -6.625 0.96875 -6.0625 C 0.757812 -5.5 0.65625 -4.96875 0.65625 -4.46875 C 0.65625 -3.96875 0.757812 -3.4375 0.96875 -2.875 C 1.1875 -2.3125 1.492188 -1.789062 1.890625 -1.3125 C 2.285156 -0.84375 2.757812 -0.453125 3.3125 -0.140625 C 3.863281 0.160156 4.484375 0.3125 5.171875 0.3125 Z M 3.03125 -4.96875 C 3.03125 -5.601562 3.054688 -6.160156 3.109375 -6.640625 C 3.160156 -7.128906 3.257812 -7.539062 3.40625 -7.875 C 3.5625 -8.21875 3.78125 -8.472656 4.0625 -8.640625 C 4.34375 -8.804688 4.710938 -8.890625 5.171875 -8.890625 C 5.628906 -8.890625 6 -8.804688 6.28125 -8.640625 C 6.5625 -8.472656 6.769531 -8.21875 6.90625 -7.875 C 7.050781 -7.539062 7.148438 -7.128906 7.203125 -6.640625 C 7.265625 -6.160156 7.296875 -5.601562 7.296875 -4.96875 L 7.296875 -3.984375 C 7.296875 -3.304688 7.265625 -2.71875 7.203125 -2.21875 C 7.148438 -1.726562 7.050781 -1.320312 6.90625 -1 C 6.769531 -0.6875 6.5625 -0.445312 6.28125 -0.28125 C 6 -0.125 5.628906 -0.046875 5.171875 -0.046875 C 4.710938 -0.046875 4.34375 -0.125 4.0625 -0.28125 C 3.78125 -0.445312 3.5625 -0.6875 3.40625 -1 C 3.257812 -1.320312 3.160156 -1.726562 3.109375 -2.21875 C 3.054688 -2.71875 3.03125 -3.304688 3.03125 -3.984375 Z M 3.03125 -4.96875 "/></g></g></g><g fill="#ffffff" fill-opacity="1"><g transform="translate(64.186154, 60.927481)"><g><path d="M 5.828125 -14.9375 L 7.5625 -14.9375 L 7.5625 -8.015625 C 7 -8.835938 6.171875 -9.25 5.078125 -9.25 C 4.535156 -9.25 4.003906 -9.109375 3.484375 -8.828125 C 2.972656 -8.554688 2.519531 -8.195312 2.125 -7.75 C 1.726562 -7.300781 1.40625 -6.789062 1.15625 -6.21875 C 0.914062 -5.65625 0.796875 -5.078125 0.796875 -4.484375 C 0.796875 -3.847656 0.925781 -3.238281 1.1875 -2.65625 C 1.457031 -2.070312 1.796875 -1.554688 2.203125 -1.109375 C 2.617188 -0.671875 3.078125 -0.320312 3.578125 -0.0625 C 4.078125 0.1875 4.554688 0.3125 5.015625 0.3125 C 5.617188 0.3125 6.125 0.160156 6.53125 -0.140625 C 6.945312 -0.441406 7.289062 -0.789062 7.5625 -1.1875 L 7.5625 0 L 11.25 0 L 11.25 -0.359375 L 9.515625 -0.359375 L 9.515625 -15.3125 L 5.828125 -15.3125 Z M 3.171875 -5.0625 C 3.171875 -6.46875 3.320312 -7.457031 3.625 -8.03125 C 3.925781 -8.601562 4.441406 -8.890625 5.171875 -8.890625 C 5.492188 -8.890625 5.78125 -8.832031 6.03125 -8.71875 C 6.28125 -8.613281 6.5 -8.472656 6.6875 -8.296875 C 6.875 -8.128906 7.039062 -7.945312 7.1875 -7.75 C 7.332031 -7.550781 7.457031 -7.359375 7.5625 -7.171875 L 7.5625 -1.84375 C 7.226562 -1.28125 6.859375 -0.835938 6.453125 -0.515625 C 6.054688 -0.203125 5.609375 -0.046875 5.109375 -0.046875 C 4.785156 -0.046875 4.5 -0.109375 4.25 -0.234375 C 4.007812 -0.367188 3.8125 -0.582031 3.65625 -0.875 C 3.5 -1.175781 3.378906 -1.578125 3.296875 -2.078125 C 3.210938 -2.578125 3.171875 -3.195312 3.171875 -3.9375 Z M 3.171875 -5.0625 "/></g></g></g><g fill="#ffffff" fill-opacity="1"><g transform="translate(75.116225, 60.927481)"><g><path d="M 8.953125 -5.53125 C 8.941406 -5.78125 8.863281 -6.113281 8.71875 -6.53125 C 8.570312 -6.957031 8.347656 -7.367188 8.046875 -7.765625 C 7.742188 -8.160156 7.335938 -8.503906 6.828125 -8.796875 C 6.328125 -9.097656 5.710938 -9.25 4.984375 -9.25 C 4.378906 -9.25 3.8125 -9.101562 3.28125 -8.8125 C 2.757812 -8.53125 2.304688 -8.160156 1.921875 -7.703125 C 1.546875 -7.242188 1.253906 -6.722656 1.046875 -6.140625 C 0.835938 -5.566406 0.734375 -4.984375 0.734375 -4.390625 C 0.734375 -3.804688 0.835938 -3.234375 1.046875 -2.671875 C 1.253906 -2.109375 1.546875 -1.601562 1.921875 -1.15625 C 2.304688 -0.71875 2.769531 -0.363281 3.3125 -0.09375 C 3.851562 0.175781 4.441406 0.3125 5.078125 0.3125 C 5.597656 0.3125 6.066406 0.238281 6.484375 0.09375 C 6.910156 -0.0390625 7.285156 -0.234375 7.609375 -0.484375 C 7.941406 -0.734375 8.222656 -1.023438 8.453125 -1.359375 C 8.679688 -1.703125 8.863281 -2.054688 9 -2.421875 C 9.039062 -2.523438 9.0625 -2.628906 9.0625 -2.734375 C 9.0625 -2.835938 9.019531 -2.890625 8.9375 -2.890625 C 8.851562 -2.890625 8.78125 -2.816406 8.71875 -2.671875 C 8.582031 -2.347656 8.410156 -2.023438 8.203125 -1.703125 C 8.003906 -1.390625 7.753906 -1.109375 7.453125 -0.859375 C 7.160156 -0.617188 6.820312 -0.421875 6.4375 -0.265625 C 6.0625 -0.117188 5.625 -0.046875 5.125 -0.046875 C 4.519531 -0.046875 4.03125 -0.269531 3.65625 -0.71875 C 3.28125 -1.175781 3.09375 -1.910156 3.09375 -2.921875 L 3.09375 -5.234375 L 8.59375 -5.234375 C 8.832031 -5.234375 8.953125 -5.332031 8.953125 -5.53125 Z M 3.09375 -5.609375 L 3.09375 -6.515625 C 3.09375 -7.015625 3.148438 -7.421875 3.265625 -7.734375 C 3.378906 -8.046875 3.523438 -8.285156 3.703125 -8.453125 C 3.890625 -8.617188 4.097656 -8.734375 4.328125 -8.796875 C 4.554688 -8.859375 4.785156 -8.890625 5.015625 -8.890625 C 5.378906 -8.890625 5.675781 -8.820312 5.90625 -8.6875 C 6.144531 -8.5625 6.332031 -8.390625 6.46875 -8.171875 C 6.601562 -7.960938 6.691406 -7.726562 6.734375 -7.46875 C 6.785156 -7.207031 6.8125 -6.941406 6.8125 -6.671875 C 6.8125 -5.960938 6.695312 -5.609375 6.46875 -5.609375 Z M 3.09375 -5.609375 "/></g></g></g><g fill="#03fa6e" fill-opacity="1"><g transform="translate(84.135963, 60.927481)"><g><path d="M 10.28125 -15.46875 L 9.609375 -14.625 C 9.335938 -14.78125 9.078125 -14.914062 8.828125 -15.03125 C 8.585938 -15.15625 8.34375 -15.253906 8.09375 -15.328125 C 7.84375 -15.410156 7.578125 -15.46875 7.296875 -15.5 C 7.015625 -15.539062 6.691406 -15.5625 6.328125 -15.5625 C 5.585938 -15.5625 4.925781 -15.4375 4.34375 -15.1875 C 3.757812 -14.945312 3.257812 -14.617188 2.84375 -14.203125 C 2.4375 -13.796875 2.125 -13.328125 1.90625 -12.796875 C 1.695312 -12.265625 1.59375 -11.707031 1.59375 -11.125 C 1.59375 -10.3125 1.835938 -9.570312 2.328125 -8.90625 C 2.828125 -8.238281 3.597656 -7.726562 4.640625 -7.375 C 5.148438 -7.207031 5.578125 -7.070312 5.921875 -6.96875 C 6.273438 -6.863281 6.601562 -6.757812 6.90625 -6.65625 C 7.207031 -6.5625 7.515625 -6.457031 7.828125 -6.34375 C 8.140625 -6.226562 8.5 -6.070312 8.90625 -5.875 C 9.425781 -5.632812 9.773438 -5.296875 9.953125 -4.859375 C 10.140625 -4.429688 10.234375 -3.992188 10.234375 -3.546875 C 10.234375 -3.003906 10.125 -2.507812 9.90625 -2.0625 C 9.695312 -1.613281 9.414062 -1.238281 9.0625 -0.9375 C 8.71875 -0.632812 8.316406 -0.398438 7.859375 -0.234375 C 7.398438 -0.0664062 6.9375 0.015625 6.46875 0.015625 C 5.925781 0.015625 5.398438 -0.078125 4.890625 -0.265625 C 4.390625 -0.453125 3.925781 -0.71875 3.5 -1.0625 C 3.082031 -1.414062 2.71875 -1.847656 2.40625 -2.359375 C 2.09375 -2.878906 1.851562 -3.457031 1.6875 -4.09375 C 1.644531 -4.289062 1.5625 -4.390625 1.4375 -4.390625 C 1.332031 -4.390625 1.28125 -4.285156 1.28125 -4.078125 L 1.28125 0 C 1.28125 0.195312 1.347656 0.296875 1.484375 0.296875 C 1.578125 0.296875 1.675781 0.21875 1.78125 0.0625 L 2.59375 -1.109375 C 2.78125 -0.941406 3.003906 -0.765625 3.265625 -0.578125 C 3.535156 -0.398438 3.832031 -0.234375 4.15625 -0.078125 C 4.476562 0.0664062 4.828125 0.1875 5.203125 0.28125 C 5.578125 0.382812 5.960938 0.4375 6.359375 0.4375 C 7.085938 0.4375 7.757812 0.300781 8.375 0.03125 C 9 -0.226562 9.539062 -0.59375 10 -1.0625 C 10.457031 -1.539062 10.816406 -2.101562 11.078125 -2.75 C 11.347656 -3.394531 11.484375 -4.085938 11.484375 -4.828125 C 11.484375 -5.847656 11.242188 -6.707031 10.765625 -7.40625 C 10.285156 -8.113281 9.53125 -8.625 8.5 -8.9375 C 8.144531 -9.039062 7.816406 -9.128906 7.515625 -9.203125 C 7.210938 -9.273438 6.898438 -9.359375 6.578125 -9.453125 C 6.265625 -9.546875 5.929688 -9.648438 5.578125 -9.765625 C 5.234375 -9.878906 4.847656 -10.019531 4.421875 -10.1875 C 3.953125 -10.363281 3.59375 -10.640625 3.34375 -11.015625 C 3.101562 -11.398438 2.984375 -11.84375 2.984375 -12.34375 C 2.984375 -12.8125 3.082031 -13.222656 3.28125 -13.578125 C 3.476562 -13.941406 3.734375 -14.238281 4.046875 -14.46875 C 4.359375 -14.695312 4.710938 -14.867188 5.109375 -14.984375 C 5.515625 -15.097656 5.921875 -15.15625 6.328125 -15.15625 C 6.953125 -15.15625 7.5 -15.046875 7.96875 -14.828125 C 8.4375 -14.617188 8.832031 -14.335938 9.15625 -13.984375 C 9.476562 -13.640625 9.734375 -13.238281 9.921875 -12.78125 C 10.109375 -12.320312 10.234375 -11.851562 10.296875 -11.375 C 10.304688 -11.21875 10.375 -11.140625 10.5 -11.140625 C 10.601562 -11.140625 10.65625 -11.21875 10.65625 -11.375 L 10.65625 -15.421875 C 10.65625 -15.578125 10.613281 -15.65625 10.53125 -15.65625 C 10.445312 -15.65625 10.363281 -15.59375 10.28125 -15.46875 Z M 10.28125 -15.46875 "/></g></g></g><g fill="#ffffff" fill-opacity="1"><g transform="translate(95.614144, 60.927481)"><g><path d="M 0.6875 -8.9375 L 0.6875 -8.5625 L 2.1875 -8.5625 L 5.984375 0.09375 L 4.671875 3.578125 C 4.472656 4.078125 4.253906 4.445312 4.015625 4.6875 C 3.785156 4.9375 3.5625 5.0625 3.34375 5.0625 C 3.226562 5.0625 3.148438 5.03125 3.109375 4.96875 C 3.066406 4.90625 3.023438 4.828125 2.984375 4.734375 C 2.890625 4.535156 2.773438 4.382812 2.640625 4.28125 C 2.503906 4.1875 2.320312 4.140625 2.09375 4.140625 C 1.832031 4.140625 1.632812 4.222656 1.5 4.390625 C 1.363281 4.554688 1.296875 4.753906 1.296875 4.984375 C 1.296875 5.273438 1.390625 5.507812 1.578125 5.6875 C 1.773438 5.863281 2.066406 5.953125 2.453125 5.953125 C 2.984375 5.953125 3.476562 5.75 3.9375 5.34375 C 4.394531 4.9375 4.753906 4.382812 5.015625 3.6875 L 9.703125 -8.5625 L 11.203125 -8.5625 L 11.203125 -8.9375 L 7.609375 -8.9375 L 7.609375 -8.5625 L 9.296875 -8.5625 L 6.921875 -2.375 L 4.28125 -8.5625 L 6.03125 -8.5625 L 6.03125 -8.9375 Z M 0.6875 -8.9375 "/></g></g></g><g fill="#ffffff" fill-opacity="1"><g transform="translate(106.270958, 60.927481)"><g><path d="M 4.375 -7.203125 L 4.375 -8.9375 L 0.8125 -8.9375 L 0.8125 -8.5625 L 2.421875 -8.5625 L 2.421875 -0.359375 L 0.8125 -0.359375 L 0.8125 0 L 5.96875 0 L 5.96875 -0.359375 L 4.375 -0.359375 L 4.375 -6.015625 C 4.375 -6.273438 4.441406 -6.550781 4.578125 -6.84375 C 4.710938 -7.144531 4.890625 -7.421875 5.109375 -7.671875 C 5.328125 -7.929688 5.578125 -8.144531 5.859375 -8.3125 C 6.140625 -8.476562 6.4375 -8.5625 6.75 -8.5625 C 7.1875 -8.5625 7.503906 -8.425781 7.703125 -8.15625 C 7.910156 -7.882812 8.015625 -7.453125 8.015625 -6.859375 L 8.015625 -0.359375 L 6.421875 -0.359375 L 6.421875 0 L 11.578125 0 L 11.578125 -0.359375 L 9.984375 -0.359375 L 9.984375 -7.015625 C 9.984375 -7.804688 9.757812 -8.351562 9.3125 -8.65625 C 8.863281 -8.957031 8.289062 -9.109375 7.59375 -9.109375 C 6.75 -9.109375 6.066406 -8.914062 5.546875 -8.53125 C 5.023438 -8.15625 4.632812 -7.710938 4.375 -7.203125 Z M 4.375 -7.203125 "/></g></g></g><g fill="#ffffff" fill-opacity="1"><g transform="translate(117.497055, 60.927481)"><g><path d="M 3.125 -3.9375 L 3.125 -4.9375 C 3.125 -5.6875 3.164062 -6.3125 3.25 -6.8125 C 3.34375 -7.3125 3.484375 -7.71875 3.671875 -8.03125 C 3.867188 -8.34375 4.109375 -8.5625 4.390625 -8.6875 C 4.679688 -8.820312 5.023438 -8.890625 5.421875 -8.890625 C 5.984375 -8.890625 6.363281 -8.816406 6.5625 -8.671875 C 6.769531 -8.523438 6.875 -8.421875 6.875 -8.359375 C 6.875 -8.296875 6.851562 -8.242188 6.8125 -8.203125 C 6.707031 -8.078125 6.628906 -7.945312 6.578125 -7.8125 C 6.523438 -7.6875 6.5 -7.523438 6.5 -7.328125 C 6.5 -7.023438 6.59375 -6.796875 6.78125 -6.640625 C 6.976562 -6.484375 7.207031 -6.40625 7.46875 -6.40625 C 7.769531 -6.40625 8.007812 -6.492188 8.1875 -6.671875 C 8.375 -6.859375 8.46875 -7.09375 8.46875 -7.375 C 8.46875 -7.664062 8.367188 -7.925781 8.171875 -8.15625 C 7.972656 -8.394531 7.726562 -8.59375 7.4375 -8.75 C 7.144531 -8.914062 6.820312 -9.039062 6.46875 -9.125 C 6.125 -9.207031 5.789062 -9.25 5.46875 -9.25 C 4.875 -9.25 4.296875 -9.128906 3.734375 -8.890625 C 3.171875 -8.660156 2.671875 -8.335938 2.234375 -7.921875 C 1.796875 -7.503906 1.4375 -7 1.15625 -6.40625 C 0.882812 -5.8125 0.75 -5.15625 0.75 -4.4375 C 0.75 -3.707031 0.878906 -3.050781 1.140625 -2.46875 C 1.410156 -1.882812 1.757812 -1.382812 2.1875 -0.96875 C 2.625 -0.550781 3.117188 -0.234375 3.671875 -0.015625 C 4.234375 0.203125 4.796875 0.3125 5.359375 0.3125 C 5.921875 0.3125 6.410156 0.222656 6.828125 0.046875 C 7.253906 -0.117188 7.613281 -0.332031 7.90625 -0.59375 C 8.195312 -0.863281 8.425781 -1.144531 8.59375 -1.4375 C 8.757812 -1.738281 8.878906 -2.007812 8.953125 -2.25 C 8.984375 -2.34375 9 -2.40625 9 -2.4375 C 9 -2.570312 8.9375 -2.640625 8.8125 -2.640625 C 8.71875 -2.640625 8.648438 -2.566406 8.609375 -2.421875 C 8.515625 -2.128906 8.375 -1.84375 8.1875 -1.5625 C 8.007812 -1.28125 7.785156 -1.023438 7.515625 -0.796875 C 7.253906 -0.566406 6.945312 -0.382812 6.59375 -0.25 C 6.238281 -0.113281 5.847656 -0.046875 5.421875 -0.046875 C 4.953125 -0.046875 4.566406 -0.113281 4.265625 -0.25 C 3.972656 -0.382812 3.738281 -0.609375 3.5625 -0.921875 C 3.382812 -1.234375 3.265625 -1.632812 3.203125 -2.125 C 3.148438 -2.625 3.125 -3.226562 3.125 -3.9375 Z M 3.125 -3.9375 "/></g></g></g><g clip-path="url(#3dbf4b35a4)"><g clip-path="url(#66d1c9a814)"><g clip-path="url(#5ed8748dcb)"><path fill="#03fa6e" d="M 136.800781 28.859375 C 136.648438 28.816406 136.5 28.839844 136.363281 28.917969 C 136.226562 29 136.136719 29.117188 136.097656 29.269531 L 123.375 77.582031 C 123.332031 77.738281 123.347656 77.886719 123.425781 78.03125 C 123.507812 78.171875 123.625 78.261719 123.785156 78.304688 C 123.941406 78.34375 124.089844 78.324219 124.226562 78.242188 C 124.367188 78.15625 124.457031 78.035156 124.492188 77.878906 L 137.214844 29.566406 C 137.253906 29.410156 137.234375 29.265625 137.152344 29.125 C 137.074219 28.988281 136.957031 28.898438 136.800781 28.859375 Z M 136.800781 28.859375 " fill-opacity="1" fill-rule="nonzero"/></g></g></g><g clip-path="url(#85581ec26b)"><path fill="#03fa6e" d="M 17.242188 51.488281 L 48.601562 32.933594 L 48.601562 38.289062 L 22.179688 53.503906 L 22.179688 53.660156 L 48.601562 68.875 L 48.601562 74.230469 L 17.242188 55.679688 Z M 17.242188 51.488281 " fill-opacity="1" fill-rule="nonzero"/></g><g clip-path="url(#8b58ff7ae9)"><path fill="#03fa6e" d="M 169.757812 55.679688 L 138.398438 74.230469 L 138.398438 68.875 L 164.820312 53.660156 L 164.820312 53.503906 L 138.398438 38.289062 L 138.398438 32.933594 L 169.757812 51.488281 Z M 169.757812 55.679688 " fill-opacity="1" fill-rule="nonzero"/></g></svg>